HIERARCHY
ROOT hip
{
	OFFSET 0.000000 0.000000 0.000000 
	CHANNELS 6 Xposition Yposition Zposition Xrotation Zrotation Yrotation
	JOINT abdomen
	{
		OFFSET 0.000000 3.402643 0.000000 
		CHANNELS 3 Xrotation Zrotation Yrotation
		JOINT chest
		{
			OFFSET 0.000000 8.438565 -0.680529 
			CHANNELS 3 Xrotation Zrotation Yrotation
			JOINT neck
			{
				OFFSET 0.000000 10.207942 -0.272212 
				CHANNELS 3 Xrotation Zrotation Yrotation
				JOINT head
				{
					OFFSET 0.000000 3.130431 0.000000 
					CHANNELS 3 Xrotation Zrotation Yrotation
					End Site
					{
						OFFSET 0.000000 3.130435 0.000000 
					}
				}
			}
			JOINT lCollar
			{
				OFFSET 3.470700 6.669187 -0.816635 
				CHANNELS 3 Yrotation Zrotation Xrotation
				JOINT lShldr
				{
					OFFSET 3.198488 0.000000 0.000000 
					CHANNELS 3 Zrotation Yrotation Xrotation
					JOINT lForeArm
					{
						OFFSET 10.139888 0.000000 0.000000 
						CHANNELS 3 Yrotation Zrotation Xrotation
						JOINT lHand
						{
							OFFSET 8.370511 0.000000 0.000000 
							CHANNELS 3 Zrotation Yrotation Xrotation
							End Site
							{
								OFFSET 4.083176 0.000000 0.000000 
							}
						}
					}
				}
			}
			JOINT rCollar
			{
				OFFSET -3.470700 6.669187 -0.816635 
				CHANNELS 3 Yrotation Zrotation Xrotation
				JOINT rShldr
				{
					OFFSET -3.198488 0.000000 0.000000 
					CHANNELS 3 Zrotation Yrotation Xrotation
					JOINT rForeArm
					{
						OFFSET -10.139888 0.000000 0.000000 
						CHANNELS 3 Yrotation Zrotation Xrotation
						JOINT rHand
						{
							OFFSET -8.370511 0.000000 0.000000 
							CHANNELS 3 Zrotation Yrotation Xrotation
							End Site
							{
								OFFSET -4.083176 0.000000 0.000000 
							}
						}
					}
				}
			}
		}
	}
	JOINT lThigh
	{
		OFFSET 5.308129 -1.633274 1.361059 
		CHANNELS 3 Xrotation Zrotation Yrotation
		JOINT lShin
		{
			OFFSET -2.041588 -20.007561 0.000000 
			CHANNELS 3 Xrotation Zrotation Yrotation
			JOINT lFoot
			{
				OFFSET 0.000000 -19.190928 -1.224953 
				CHANNELS 3 Xrotation Yrotation Zrotation
				End Site
				{
					OFFSET 0.000000 -2.449906 4.627600 
				}
			}
		}
	}
	JOINT rThigh
	{
		OFFSET -5.308129 -1.633274 1.361059 
		CHANNELS 3 Xrotation Zrotation Yrotation
		JOINT rShin
		{
			OFFSET 2.041588 -20.007561 0.000000 
			CHANNELS 3 Xrotation Zrotation Yrotation
			JOINT rFoot
			{
				OFFSET 0.000000 -19.190928 -1.224953 
				CHANNELS 3 Xrotation Yrotation Zrotation
				End Site
				{
					OFFSET 0.000000 -2.449906 4.627600 
				}
			}
		}
	}
}
MOTION
Frames: 15
Frame Time: 0.033333
0.733983 49.643158 0.099817 0.257358 -0.595693 -0.332115 0.000000 0.000000 0.000000 -1.285288 -1.366989 -0.976983 5.537302 -1.717383 -2.286471 15.825624 1.073951 -1.279438 -4.121864 -7.082491 -0.795039 -40.815121 10.295088 -8.363740 -35.590897 -0.813459 13.337363 -4.055997 -0.909039 -3.273812 2.384122 2.707735 -0.645107 51.156647 -12.148900 -23.562422 32.842804 -0.046021 13.627393 -6.736579 -1.624813 -3.573769 4.654280 7.388338 8.117290 0.279986 -3.163283 -1.425885 -2.378362 0.020018 -1.739465 5.817083 -8.288207 -8.459174 -2.084744 2.981357 -6.819139 0.008298 -0.013164 3.284841 
0.931256 49.657616 0.027795 0.317763 -0.605446 -0.498122 0.000000 0.000000 0.000000 -1.044100 -1.591667 -0.732953 5.053537 -1.814936 -2.306005 16.442575 1.513095 -1.582511 -4.383601 -8.388040 -0.658267 -45.524464 11.012485 -7.299451 -35.775135 -0.920884 15.149086 -4.824367 0.708248 -3.352212 4.007960 6.200277 -0.578806 53.458107 -14.829185 -20.570425 34.625847 -0.032904 17.604168 -4.875495 -0.581313 -3.586619 4.546092 7.211257 8.147890 0.192889 -3.363838 -1.211745 -2.287071 0.028861 -1.019760 5.633767 -8.485901 -8.441661 -2.069446 2.917288 -6.581390 0.238427 -0.029692 3.276145 
1.198780 49.656471 -0.078779 0.586916 -0.205076 -0.273471 0.000000 0.000000 0.000000 -1.001974 -2.070047 -0.918781 4.637708 -2.068054 -2.677561 16.671270 1.356898 -1.592044 -5.316461 -9.882352 -0.759475 -50.284847 12.516892 -7.472879 -36.500561 -0.985341 13.552526 -6.279637 3.227909 -3.482854 4.382013 7.328661 -0.589447 57.954994 -15.756649 -16.701117 35.699539 0.731230 14.958977 -6.649893 -1.904637 -3.572108 4.118972 6.492162 7.620439 0.027378 -3.405487 -0.916704 -1.986662 -0.033935 -0.318443 5.312245 -9.170038 -8.854443 -2.064761 2.923515 -6.522920 0.297479 -0.033648 3.566159 
1.558729 49.649303 -0.149272 0.860607 0.195309 0.361359 0.000000 0.000000 0.000000 -1.048402 -2.518696 -1.476189 4.258065 -2.271834 -3.206024 17.045542 1.298369 -1.523710 -6.515198 -11.074599 -0.968957 -56.084568 14.393797 -8.945408 -37.948406 -0.132585 14.076107 -6.474104 6.322177 -3.711426 4.402746 7.778642 -0.707861 62.513321 -16.502472 -13.849348 36.225212 1.213724 14.939605 -6.049376 -2.874272 -3.531867 3.544089 5.605367 6.838858 0.086061 -3.284463 -0.795869 -1.688775 -0.032928 0.207525 5.182018 -10.093454 -9.562623 -2.050682 3.123067 -6.362439 0.336739 -0.030893 4.077886 
1.723108 49.638355 -0.260467 0.276332 -0.458975 -0.361395 0.000000 0.000000 0.000000 -0.400052 -2.362770 -1.192809 4.443865 -2.087056 -2.961288 16.895708 1.064082 -1.513773 -6.117743 -10.794874 -0.335292 -62.689224 14.829210 -10.619435 -39.287064 0.901111 14.136365 -7.054921 7.893332 -3.835451 4.855544 8.395832 -0.148674 66.516258 -16.874037 -10.476719 36.558811 1.837827 15.640695 -5.016740 -2.511642 -3.541564 3.970019 6.186027 7.541563 0.495358 -3.529160 -0.702586 -1.833763 -0.044289 -0.133201 5.328066 -9.437832 -8.787267 -2.011871 2.645010 -6.158793 0.838989 -0.030745 4.237940 
2.025136 49.629791 -0.393220 0.356569 -0.624980 -0.459064 0.000000 0.000000 0.000000 -0.238866 -2.421271 -1.280630 4.435558 -2.067422 -3.029599 16.411659 0.898120 -1.523556 -6.109710 -10.878746 -0.186713 -68.008636 15.463509 -10.661566 -41.152950 1.286181 13.797469 -8.440207 9.234312 -4.009740 4.884251 8.407372 -0.011053 69.808388 -17.059855 -7.378881 36.715443 2.460842 15.831250 -7.330038 -3.332575 -3.505391 3.542974 6.081371 7.497302 0.934356 -3.646786 -0.585162 -1.826147 -0.034558 0.080836 4.986972 -9.565887 -8.667563 -1.952545 2.478335 -6.149211 1.189883 0.008125 4.434631 
2.325074 49.615211 -0.536293 0.364256 -0.908115 -0.800990 0.000000 0.000000 0.000000 0.021703 -2.392035 -1.222085 4.386566 -2.126104 -2.941775 16.055527 1.005457 -1.621187 -5.947670 -10.913267 0.049535 -71.478951 16.170704 -8.267960 -43.896736 0.826942 13.903376 -6.668551 9.945149 -3.979238 5.057781 8.806333 0.196739 71.972969 -17.205872 -4.649427 37.312733 3.122425 14.827070 -10.994188 -5.406415 -3.343975 2.646194 6.230612 7.730679 2.592746 -3.938149 -0.614371 -2.496469 -0.056402 0.482710 4.606502 -9.516699 -8.339170 -1.891950 2.183700 -6.311920 1.757781 0.035469 4.841086 
2.673013 49.613079 -0.714445 0.329745 -1.298548 -1.191764 0.000000 0.000000 0.000000 0.364415 -2.187094 -1.104575 4.487737 -2.038418 -2.892615 15.412146 0.605215 -1.660167 -5.704325 -10.695339 0.415507 -72.678177 16.341427 -3.047169 -46.403759 -0.222021 16.829933 -5.419893 9.127090 -3.850467 5.114789 9.069065 0.511750 73.047325 -16.961004 -1.888277 37.474770 3.728335 14.561825 -14.275122 -6.739507 -3.141396 1.962569 6.366496 7.967889 3.767347 -4.188771 -0.449122 -3.108033 -0.051236 1.192569 4.195316 -9.523703 -8.184988 -1.809568 2.102391 -6.265635 2.713910 0.086442 5.298915 
3.000625 49.623295 -0.951546 0.207995 -1.630319 -1.475402 0.000000 0.000000 0.000000 0.835747 -1.952812 -1.026126 4.698671 -2.214125 -2.814926 14.872910 0.331884 -1.709013 -5.542974 -10.766843 0.861650 -71.293564 15.386068 1.478875 -48.571228 -0.550356 23.781979 -7.131683 8.171285 -3.869361 5.166134 8.952798 0.943485 73.336006 -16.224966 -0.005202 37.026188 3.955624 16.398232 -15.873256 -6.399127 -3.136876 1.346758 6.308068 7.822694 4.719092 -4.116592 -0.255425 -3.448159 -0.031596 1.730150 3.619746 -9.516135 -8.243907 -1.618061 2.241528 -7.636053 4.127534 0.173999 5.436894 
3.256338 49.645069 -1.175919 0.547363 -2.215403 -2.033129 0.000000 0.000000 0.000000 0.878168 -1.620985 -0.664349 4.854265 -2.243938 -2.512046 13.950069 0.448976 -1.884784 -5.207292 -10.201811 0.929013 -67.512421 13.810565 6.653869 -49.844742 -1.697173 24.461826 -4.993388 8.369343 -3.790323 5.632536 8.923295 0.963484 72.672813 -16.053165 0.445206 37.215004 4.018588 16.459194 -16.137615 -6.683216 -3.088322 0.594559 6.555679 7.790788 5.133344 -3.983441 0.283484 -3.695513 -0.056010 2.186586 2.352752 -9.099476 -7.919216 -1.120341 2.348727 -9.777878 5.837821 0.271575 5.527673 
3.508704 49.667686 -1.427314 0.858075 -2.956318 -2.434950 0.000000 0.000000 0.000000 0.925276 -1.298808 -0.322404 5.021489 -1.746633 -2.305998 13.072894 0.097601 -1.923825 -4.917309 -8.908542 1.044490 -64.048996 11.467476 12.200445 -50.592335 -3.123823 22.981150 -2.909174 6.995667 -3.632745 6.064072 9.215822 0.983447 70.836525 -15.855847 1.079290 37.862053 4.260763 14.892135 -15.153717 -7.187939 -3.057231 -0.654669 7.194909 8.108549 6.653517 -4.147825 0.253552 -3.880798 -0.042999 2.203868 1.141482 -8.521568 -7.661918 -0.708263 2.570002 -12.277476 7.543899 0.330039 4.940515 
3.800943 49.673458 -1.652227 0.495308 -3.639347 -2.417160 0.000000 0.000000 0.000000 1.492124 -0.927702 -0.478611 5.430406 -1.473416 -2.305683 12.427214 0.136647 -1.855464 -5.202779 -8.319512 1.582940 -60.225952 9.107996 16.250994 -51.380470 -4.137779 21.762089 -1.104201 5.568084 -3.548084 6.014683 9.315603 1.465611 68.716820 -14.960018 2.112133 38.105324 4.539207 14.229243 -14.502717 -7.396136 -3.062741 -0.917781 7.550090 8.319034 7.415804 -4.140228 0.080220 -4.111301 -0.074899 2.372077 0.750101 -8.107254 -7.687574 -0.193519 2.768341 -14.494362 8.972918 0.364970 4.629852 
4.012960 49.662399 -1.880895 0.141415 -4.350883 -2.634935 0.000000 0.000000 0.000000 2.016999 -0.507785 -0.595766 5.847434 -1.483303 -2.178521 11.670952 0.283068 -1.767557 -5.473219 -8.375725 2.072860 -55.857624 6.895814 19.407621 -51.206795 -5.037469 21.514124 -0.694962 3.538554 -3.503095 5.867692 9.089519 1.946610 66.680733 -13.679088 3.533317 38.173290 4.807455 14.169910 -14.022126 -7.711232 -3.037495 -1.034980 8.165825 8.788666 8.012277 -4.258182 -0.233422 -4.385777 -0.083271 2.434104 0.408989 -7.601004 -7.679829 0.100234 2.991106 -16.362633 10.206656 0.365763 3.971468 
4.200999 49.661633 -2.098582 0.100367 -4.545589 -2.743568 0.000000 0.000000 0.000000 2.252630 -0.498004 -0.752010 5.867488 -1.678363 -2.276416 11.472627 0.380678 -1.767604 -5.717074 -8.706923 2.260245 -52.061493 4.846076 21.646692 -49.920990 -5.807554 22.842091 1.607489 2.965904 -3.487766 5.668131 8.755479 2.180669 64.799652 -12.444648 5.048374 38.124096 4.991375 14.848669 -14.499640 -8.141525 -2.975126 -1.269430 8.200500 8.769920 8.105908 -4.312916 -0.214426 -4.415812 -0.089038 2.442482 -0.313186 -7.559840 -7.795946 0.851316 3.175082 -17.475664 11.050426 0.370851 3.878899 
4.407173 49.653465 -2.272889 0.160084 -4.594872 -2.606513 0.000000 0.000000 0.000000 2.332355 -0.507747 -0.918019 5.673917 -1.736521 -2.579604 11.460655 0.419690 -1.904318 -5.808434 -8.854650 2.330021 -49.035477 2.626854 22.293688 -47.754837 -7.160823 21.273447 2.101525 2.713525 -3.502377 5.332588 8.469068 2.278070 63.428505 -11.516654 5.874379 38.340622 4.952248 15.402230 -14.831365 -8.577587 -2.903493 -1.503416 7.989776 8.619238 7.945680 -4.346949 -0.115845 -4.537941 -0.088119 2.528618 -1.298495 -7.862610 -8.081130 2.313525 3.450967 -17.872793 11.516028 0.470462 4.531846 
